<?xml version="1.0" encoding="UTF-8"?>
<svg version="1.1" viewBox="0 0 1536 1472" width="1536" height="1472" xmlns="http://www.w3.org/2000/svg">
<path transform="translate(791,9)" d="m0 0h5l1 1v9l-3 9 12-5 4-2 5 1 1 4-3 12 14-3h24l22 4 27 9 20 7 12 4 8-1 6-4 7-6 4 2 1 4v13l-1 3 6 1 12 7 11 10v2h2l4 4v2l4 2 8 5 6 2 15-1 9-1 2 2v6l-9 9 11 6 10 8 6 9 3 8v9l-4 7-1 1 17 3 16 6 8 4-1 6-1 2 21 3 20 7 17 9 14 10 10 9 11 11 9 11 8 10-1 6-4 2h-11l-9-2h-24v2l6 2 21 11 15 9 1 5-8 6-10 3h-34l9 9 14 11 7 8 7 20 2 6 1 7-1 43-3 34-5 60-1 14v21l3 17 10 30 4 6 4 5-1 4-6 3h-4l2 9v9l-4 16-5 6h-3l-1 5-7 8-7-1-5-6-2-2-2 5v7l4 6 6 3 12 1 2 2-1 6-10 9-12 5h-4l-3 11-8 21-5 17-2 11v19l1 3v8l-4 10-8 11-6 7-8 7-14 12-9 5 9 4 1 1v6l-7 11-13 13-10 6-16 7-7 3 6 20 1 6v18l-4 13-5 8-8 7-7 3h-9l-13-4-8-5v13l9 6 24 14 12 8 8 9 11 15 12 20 8 16 13 39 11 25 11 16 5 10 2 8 10 2 15 5 27 12 21 11 12 6 14 8 34 20 32 16 18 10 22 12 17 10 12 6 20 12 40 20 29 13 13 8 9 7 13 13 10 7 8 7 8 10 9 15 8 21 9 24 6 15 4 11v24h-1472v-10l6-29 8-26 10-25 14-29 13-26 10-17 11-16 14-19 12-13 11-7 24-14 23-12 24-11 24-9 35-12 21-9 19-7 41-11 23-7 20-5 34-10 16-5 33-15 8-6 6-17 9-17 8-11 12-12 11-7 10-24 6-11 10-14 9-9-2-4-15-15-7-8-10-11-10-14-12-21-11-23-7-17-10-33-8-36-4-24-1-10v-12l-6-2-13-8-11-9-11-12-10-14-10-18-8-16-11-26-7-10-9-7-11-4-2-5-1-7v-18l5-5 31-14 16-6 18-5h2l1-22-2-15-10-18-9-19-6-20-2-12-1-16 2-17 5-16 1-4-7-10-5-11-5-17-2-16v-17l-10-2-13-7-14-12-9-10-10-15-7-15-6-20-2-11v-27l3-9 4-4 5 1 7 4 5 8 11 33 6 9 10 10 9 6 5 1v-21l4-13 7-10 8-6 1-13 5-16 8-16 10-13 8-8 1-3-3-11-1-8v-11l3-17 4-10 8-12 12-12 13-8 6-4 9-8 14-9 10-5 14-4h7l2 2-1 6-7 12 17-7 16-4 14-2 52-4 23-3 19-5 28-12 24-12 19-9zm-320 595-6 4-1 3h10v-7zm-23 43-1 5v14l2 13 5 16 8 16 9 14 12 13 13 10 4 2v-12l-1-31v-14l-5-5-7-11-7-14-4-16zm83 234 1 2zm1 3 1 2zm1 3m1 2 1 2zm1 3m1 2m1 3m1 2m1 2 1 2zm1 2 1 2zm1 3m1 2m1 2m1 2m1 2m1 3m1 2m5 9m1 2m65 80m1 1m1 1m1 1m1 1v2l2-1z" fill="#3B3642"/>
<path transform="translate(845,291)" d="m0 0 9 1 15 6 17 10 19 13 7 9 11 23 20 47 21 60 14 41 8 21 8 26 7 16 4 4 10-3 12-4 8 1 5 8 2 10v8l-2 9-2 2-18 3-8 5-3 4-1 3v8l8 24 10 29 1 5-2 6-10 44-3 13-1 14 3 10 5 3 5-1 3-7 8-23 8-16 7-10 3-2 8 20 11 21 3 5-13 7-25 5-10 1-1 2-2 16-5 18-8 25-13 52-3 13-5 25-3 12-3 8-1 22 1 7-2 17-1 19 3 37 3 11 8 20 5 8 7 6v6l-6 10-10 11-9 11-12 14-9 11-7 7-7 8-15 14-11 11-8 7-15 12-16 12-19 13-14 11-17 12-11 7-11 8-11 7-11 8-3 2h-3l-1 2-8 4-3 3-11 5h-7l-7-4-14-12-7-7-8-7-7-7-7-8-11-13-11-14-14-18-10-12-8-11-12-17-13-21-9-17-8-21-3-13 1-5 3-3 8-4 4-5 2-7 1-34 1-29-6-5-9-9-1-5-8-7-9-9-7-8-10-11-10-13-9-15-3-6-7-15-9-20-10-28-7-27-7-35-4-33-15-8-13-10-8-8-7-9-10-15-6-11-10-20-5-14-7-14-4-5v-2l-4-2-7-6-6-3-6-2-1-9v-13l16-8 27-11 24-7 3-2 2-3 9-2 15-3h5v-10l-1-5v-48l4-32 2-31 4-23 15-56 7-17 9-15 21-27 9-8 14-8 11-5 21-5h13l16 3 36 12 19 8 25 11 21 10 15 5 22 4 11 1h10l12-2 11-6 7-8 8-16 3-14zm-374 313-6 4-1 3h10v-7zm-23 43-1 5v14l2 13 5 16 8 16 9 14 12 13 13 10 4 2v-12l-1-31v-14l-5-5-7-11-7-14-4-16z" fill="#F8D4C4"/>
<path transform="translate(788,19)" d="m0 0h2l-3 9-2 4v4l3 1 20-7-2 6-4 7v5l7-1 10-4 11-2h16l23 4 27 9 23 8 8 3h14l6-3 5-3-1 14 7 3 10 5 12 11 12 12 10 6 3 1 18 1-4 3-7 3v5l11 2 11 6 10 9 6 12v7l-7 8-7 5v4l16-1 14 2 16 6 2 1-1 3-9 6v5l10-1h20l20 6 16 8 14 9 9 7 9 8 9 11 8 9 3 4v2l-9-1-10-2h-13l-20 4v5l31 16 15 9-4 3-8 2-39-1-1 6 11 12 11 10 9 7 4 10 6 17 1 5v23l-1 23-3 32-4 53-2 25v11l2 19 8 26 7 16 2 4-7 2-1 5 1 3v16l-3 11-2 3h-4l-3 9-3 3-4-2-4-12-5 1-5 8-2 5v12l3 6 7 6 9 3-5 5-9 4-7 1-7 20-6 16-4 14-2 11v33l-7 14-11 12-13 12-13 9-10 4v4l14 7-4 7-8 9-15 10-12 6-12 4h-2l1 8 6 19 2 17-4 16-6 9-8 5h-11l-12-5-8-7-4-2 3-10 4-18 2-12 3-13 13-52 8-25 6-23 1-11 2-3 22-3 15-4 10-5-5-9-10-19-7-17-7 9-8 16-6 16-5 15-4 3-6-1-4-5-2-8 1-14 9-39 5-23 1-4-7-19-12-36v-8l3-6 6-5 4-2 18-3 2-3 1-7v-8l-2-10-4-7-8-1-20 7-4-2-4-5-6-14-11-35-9-23-15-45-18-50-13-30-13-29-5-9-5-6-23-15-16-9-14-5-6-1v9l-3 14-8 16-8 9-11 6-12 2h-10l-24-3-19-5-20-9-17-8-18-8-29-11-26-8-12-2h-13l-21 5-19 9-11 8-9 10-9 12-10 14-8 16-4 10-15 56-4 23-2 31-4 32v48l1 11-1 4-23 5-6 1 1-12v-18l-2-12-9-16-9-19-5-15-3-15-1-8v-13l4-20 4-9 1-4-9-13-5-11-5-19-1-6-1-27-5-1-9-2-13-8-10-9-8-8-10-15-8-17-6-21-2-13v-13l3-12 5 1 3 4 12 36 6 10 11 11 11 7 8 3h8l-1-6-1-4v-15l3-12 6-9 7-6 4-1v-15l5-16 7-14 13-17 5-4 2-3v-7l-3-11v-20l4-16 6-11 10-12 13-9 9-5 5-6 14-10 14-7 7-2 4 1-7 12-3 8v5l5-1 8-6 12-6 18-5 12-2 54-4 24-3 21-6 29-12 29-14 16-8z" fill="#604F44"/>
<path transform="translate(845,291)" d="m0 0 9 1 15 6 17 10 19 13 7 9 11 23 20 47 21 60 14 41 8 21 8 26 7 16 4 4 10-3 12-4 8 1 5 8 2 10v8l-2 9-2 2-18 3-21 2-26 5-7 1-2 5-11 8-8 9-3 7-4 31-4 16-7 21-8 16-7 10-10 11-15 11-15 8-16 5-13 3-10 1h-19l-17-3-24-10-18-10-13-10-12-12-12-16-9-16-7-15-7-21-1-5-1-17-1-3-4-2-5-2h-28l-16 3v21l3 15v27l-3 16-7 16-8 16-7 9-11 10-11 7-15 7-13 3-11 1h-10l-18-3-16-6-12-7-8-4-13-10-8-8-7-9-10-15-6-11-10-20-5-14-7-14-4-5v-2l-4-2-7-6-6-3-6-2-1-9v-13l16-8 27-11 24-7 3-2 2-3 9-2 15-3h5v-10l-1-5v-48l4-32 2-31 4-23 15-56 7-17 9-15 21-27 9-8 14-8 11-5 21-5h13l16 3 36 12 19 8 25 11 21 10 15 5 22 4 11 1h10l12-2 11-6 7-8 8-16 3-14zm-374 313-6 4-1 3h10v-7zm-23 43-1 5v14l2 13 5 16 8 16 9 14 12 13 13 10 4 2v-12l-1-31v-14l-5-5-7-11-7-14-4-16z" fill="#F8D4C4"/>
<path transform="translate(984,965)" d="m0 0 11 7 14 8 10 6 13 9 14 18 11 18 8 14 5 13 6 19 4 13 4 8 5 13 7 11 7 10 3 5 4 10 6 8 9 22 6 12v5l-1 1-3 19-8 24-18 43-11 26-13 30-14 30-12 26-21 49-13 30h-317l-3-17-1-11v-30l3-42 2-36-16 10-33 22-23 15-18 10-21 10-17 6-25 6-27 3-6 1h-12l-13-2-4-5 1-5 4-13 5-19 5-28 10-106 4-52 5-42 2-17 3-5 2-10 5-12 8-14 6-8h2l2-4 10-9 5-3 4-1 7-19 8-16 9-13 9-10 5-5 4 2 6 5 6 8v36l-1 26-3 9-7 6-6 3-2 2 1 10 7 21 10 21 13 21 14 20 13 17 10 12 10 13 13 16 9 11 15 16 13 12 10 9 7 5 3 1h7l16-8 16-10 11-8 18-12 10-7 12-8 13-10 18-13 17-12 14-11 11-9 15-14 11-11 8-7 12-13 11-13 9-11 13-15 10-13 2-4v-6l-8-7-8-16-6-17-2-15-2-31 2-24z" fill="#695F67"/>
<path transform="translate(1115,1153)" d="m0 0 16 4 28 12 23 12 14 7 10 6 15 8 14 9 24 13 28 14 48 27 13 7 15 9 23 12 25 12 18 8 15 8 12 8 15 15 14 10 8 10 8 13 7 16 9 25 8 20 8 21 3 6v7h-519l3-9 22-51 10-23 14-30 16-35 31-74 10-26 4-15 2-14 1-1v-5l-8-16-7-18z" fill="#3B3642"/>
<path transform="translate(1027,561)" d="m0 0 8 1 5 8 2 10v8l-2 9-2 2-18 3-21 2-26 5-7 1-2 5-11 8-8 9-3 7-4 31-4 16-7 21-8 16-7 10-10 11-15 11-15 8-16 5-13 3-10 1h-19l-17-3-24-10-18-10-13-10-12-12-12-16-9-16-7-15-7-21-1-5-1-17-1-3-4-2-5-2h-28l-16 3v21l3 15v27l-3 16-7 16-8 16-7 9-11 10-11 7-15 7-13 3-11 1h-10l-18-3-16-6-12-7-8-4-13-10-8-8-7-9-10-15-6-11-10-20-5-14-7-14-4-5v-2l-4-2-7-6-6-3-6-2-1-9v-13l16-8 27-11 24-7 3-2 2-3 9-2 22-4h33l21 3 28 8 15 8 10 8 9 8 17-4 19-3h26l19 3 10 2 10-9 9-8 24-14 18-8 19-6 18-4 8-1h40l25 3 23 5 19 5 32 3 8 2 3 2 5-1 20-9zm-556 43-6 4-1 3h10v-7zm-23 43-1 5v14l2 13 5 16 8 16 9 14 12 13 13 10 4 2v-12l-1-31v-14l-5-5-7-11-7-14-4-16z" fill="#332425"/>
<path transform="translate(791,9)" d="m0 0h5l1 1v9l-3 9 12-5 4-2 5 1 1 4-3 12 14-3h24l22 4 27 9 20 7 12 4 8-1 6-4 7-6 4 2 1 4v13l-1 3 6 1 12 7 11 10v2h2l4 4v2l4 2 8 5 6 2 15-1 9-1 2 2v6l-9 9 11 6 10 8 6 9 3 8v9l-4 7-1 1 17 3 16 6 8 4-1 6-1 2 21 3 20 7 17 9 14 10 10 9 11 11 9 11 8 10-1 6-4 2h-11l-9-2h-24v2l6 2 21 11 15 9 1 5-8 6-10 3h-34l9 9 14 11 7 8 7 20 2 6 1 7-1 43-3 34-5 60-1 14v21l3 17 10 30 4 6 4 5-1 4-6 3h-4l2 9v9l-4 16-5 6h-3l-1 5-7 8-7-1-5-6-2-2-2 5v7l4 6 6 3 12 1 2 2-1 6-10 9-12 5h-4l-3 11-8 21-5 17-2 11v19l1 3v8l-4 10-8 11-6 7-8 7-14 12-9 5 9 4 1 1v6l-7 11-13 13-10 6-16 7-7 3 6 20 1 6v18l-4 13-5 8-8 7-7 3h-9l-13-4-8-5v13l9 6 24 14 12 8 8 9 11 15 12 20 8 16 13 39 11 25 11 16 5 10 2 8 10 2 15 5 27 12 21 11 12 6 14 8 34 20 32 16 18 10 22 12 17 10 12 6 20 12 40 20 29 13 13 8 9 7 13 13 10 7 8 7 8 10 9 15 8 21 9 24 6 15 4 11v17l-2-1-10-26-12-31-9-24-7-13-10-14-18-14-13-13-11-7-19-10-33-15-26-13-20-12-22-12-19-11-36-19-20-10-21-12-14-9-17-9-6-4-9-4-27-14-24-10-17-5-6-7-4-11-9-13-8-13-6-16-4-8-6-22-3-8-6-14-10-17-8-12-13-17-14-9-15-9-13-8-6-4-1-4 1-20 2-4 5 1 8 7 11 4h11l8-5 5-8 4-16-2-17-7-22 1-5 19-7 15-9 10-8 8-11-14-8 1-5 12-5 13-10 17-16 7-10 4-9v-33l4-18 7-21 6-16 3-7 10-2 9-5 1-1-10-4-7-7-2-5v-12l6-12 3-3 5 1 4 12h4l5-10 4-1 3-8 1-5v-16l-1-5 2-4 7-1-6-10-8-22-4-14-2-19v-11l2-25 4-53 3-32 1-23v-23l-4-13-5-15-3-5-10-8-12-11-8-9 1-6 1-1 39 1 10-3-5-4-16-9-23-12-1-1v-5l9-3 12-2h13l19 4-9-12-11-12-12-12-18-12-16-8-18-6-4-1h-20l-10 1-1-1v-5l10-7 1-2-9-3-13-4-12-1-14 1-1-5 10-8 4-5v-7l-6-12-9-8-14-7-8-2-1-5 10-5-16-1-10-5-10-9-13-13-11-7-9-3-2-2 1-13-7 5-3 1h-14l-16-6-42-14-23-4h-16l-15 3-8 4h-5l-1-1 1-7 5-10-19 7-4-2 1-6 5-11-26 14-28 13-20 9-15 6-19 5-24 3-54 4-20 4-15 5-13 8-3 3-5-1 1-7 5-12 4-6-10 2-14 7-11 8-6 5-3 4-11 6-12 9-9 12-5 11-3 13v20l3 11v7l-5 5-7 8-11 16-7 17-2 8v13l-3 3-8 6-6 9-3 12v15l2 6-1 5h-8l-12-5-10-8-9-9-6-10-13-38-6-3-2 12v13l3 17 5 17 9 19 10 14 13 13 14 9 10 3h5l2 2 1 27 4 19 5 13 7 12 4 5-1 4-4 9-4 20v13l3 19 5 16 7 16 10 19 3 7 1 8v18l-1 9-3 6-6 3-24 7-26 11-13 6v13l1 9 9 3 8 6 5 4 7 10 5 11 6 16 10 20 10 17 7 9 8 10 11 10 11 7 10 5 1 1 4 33 7 35 7 27 9 27 9 20 8 16 10 18 9 12 9 10 7 8 12 13 9 8-1 7-11 10-12 17-10 22-4 12-10 5-11 10-1 2h-2l-2 4-9 14-5 10-3 8-1 8-8 7-15 8-28 12-44 13-34 9-24 7-29 8-24 9-24 10-41 14-30 13-24 12-22 13-14 10-7 7-14 19-14 21-12 21-19 38-12 29-9 27-5 21-3 19h-6v-10l6-29 8-26 10-25 14-29 13-26 10-17 11-16 14-19 12-13 11-7 24-14 23-12 24-11 24-9 35-12 21-9 19-7 41-11 23-7 20-5 34-10 16-5 33-15 8-6 6-17 9-17 8-11 12-12 11-7 10-24 6-11 10-14 9-9-2-4-15-15-7-8-10-11-10-14-12-21-11-23-7-17-10-33-8-36-4-24-1-10v-12l-6-2-13-8-11-9-11-12-10-14-10-18-8-16-11-26-7-10-9-7-11-4-2-5-1-7v-18l5-5 31-14 16-6 18-5h2l1-22-2-15-10-18-9-19-6-20-2-12-1-16 2-17 5-16 1-4-7-10-5-11-5-17-2-16v-17l-10-2-13-7-14-12-9-10-10-15-7-15-6-20-2-11v-27l3-9 4-4 5 1 7 4 5 8 11 33 6 9 10 10 9 6 5 1v-21l4-13 7-10 8-6 1-13 5-16 8-16 10-13 8-8 1-3-3-11-1-8v-11l3-17 4-10 8-12 12-12 13-8 6-4 9-8 14-9 10-5 14-4h7l2 2-1 6-7 12 17-7 16-4 14-2 52-4 23-3 19-5 28-12 24-12 19-9z" fill="#0C0A0B"/>
<path transform="translate(816,575)" d="m0 0h32l14 3 14 5 12 7 12 11 9 10 6 10 6 15 3 12v25l-4 25-6 18-7 11-14 14-16 10-13 6-18 5-18 2h-12l-16-3-15-5-23-12-11-8-16-16-7-10-6-15-6-21-2-22 2-15 5-15 8-11 9-9 15-10 15-7 19-6 17-3z" fill="#F8D4C4"/>
<path transform="translate(507,590)" d="m0 0h26l21 4 22 8 14 10 15 14 9 12 7 16 4 16 1 10v17l-3 18-5 15-7 14-6 9-7 6-12 7-15 5-13 2h-11l-16-3-5-2-8-2-12-6-1-29v-33l1-6 4-2 3-14 1-18v-22l-2-12-7-18-4-13v-2z" fill="#F8D4C4"/>
<path transform="translate(811,1349)" d="m0 0 7 6 5 6 8 7 12 11 14 14 8 7 21 21 7 8 16 16 8 7 15 12 12 7v1h-138v-48l3-36 1-13z" fill="#3C3743"/>
<path transform="translate(498,591)" d="m0 0h3l11 31 2 6 1 8v22l-1 18-3 14-2 2-4-1-5-4-9-14-7-16-2-13-3-7-1-6v-14h2l-1-19-2-2 15-4z" fill="#604F44"/>
<path transform="translate(443,640)" d="m0 0 25 1h13l2 3 2 13 7 16 7 11 7 7v40l1 28-5 1-12-8-11-8-5-6-5-5-8-10-10-18-6-15-3-13-1-8v-18l1-10zm5 7-1 5v14l2 13 5 16 8 16 9 14 12 13 13 10 4 2v-12l-1-31v-14l-5-5-7-11-7-14-4-16z" fill="#0B0A0A"/>
<path transform="translate(750,1332)" d="m0 0h8l6 3 5 6 2 6v13l-3 6-7 6-3 1h-7l-9-4-6-5-2-4v-14l4-8 6-4z" fill="#FCF8F6"/>
<path transform="translate(1090,699)" d="m0 0 7 6 10 6 3 3-8 11-11 18-7 8-2-3v-15l3-17z" fill="#F8D4C4"/>
<path transform="translate(751,1339)" d="m0 0h6l6 5 1 3v12l-4 6-2 1h-7l-8-4-3-5v-8l3-6z" fill="#3E3944"/>
<path transform="translate(748,1453)" d="m0 0h9l5 3 4 7v9h-28v-9l4-7z" fill="#3D3844"/>
<path transform="translate(750,1446)" d="m0 0h7l8 4 5 6 3 7v9h-7l-1-9-4-7-4-2h-9l-6 3-3 6-1 9h-6v-11l4-8 6-5z" fill="#FCF8F7"/>
<path transform="translate(472,597)" d="m0 0h7l1 1 1 17-1 2h-23l-2-1-1-4 11-12zm-1 7-6 4-1 3h10v-7z" fill="#090707"/>
<path transform="translate(926,599)" d="m0 0h10l6 2 1 6-5 4-4 1h-13l-4-3 1-7z" fill="#FCFAF9"/>
<path transform="translate(419,623)" d="m0 0h7l5 2 2 2-1 7-5 3h-8l-5-3-1-1v-6l3-3z" fill="#FCFBFB"/>
<path transform="translate(1109,679)" d="m0 0 18 5-8 16-4-5-6-12z" fill="#F8D4C4"/>
</svg>
